<?xml version="1.0" encoding="iso-8859-1"?>
<!-- Generator: Adobe Illustrator 18.1.1, SVG Export Plug-In . SVG Version: 6.00 Build 0)  -->
<svg xmlns="http://www.w3.org/2000/svg" xmlns:xlink="http://www.w3.org/1999/xlink" version="1.1" id="Capa_1" x="0px" y="0px" viewBox="0 0 17.375 17.375" style="enable-background:new 0 0 17.375 17.375;" xml:space="preserve" width="512px" height="512px">
<g>
	<path d="M2.652,6H0v5.325h4.419V3.705H2.652V6z M2.595,9.679H1.711V7.491h0.884C2.595,7.491,2.595,9.679,2.595,9.679z    M7.824,11.391h2.583v0.673H7.824v1.606h4.352V6.028H7.824V11.391z M9.476,7.717h0.881v2.188H9.476V7.717z M13.023,6.028v5.361   h2.583v0.673h-2.583v1.606h4.352V6.028L13.023,6.028L13.023,6.028z M15.556,9.905h-0.881V7.717h0.881V9.905z M5.218,3.727h1.769   v1.494H5.218V3.727z M5.218,6.021h1.769v5.345H5.218V6.021z" fill="#FFFFFF"/>
</g>
<g>
</g>
<g>
</g>
<g>
</g>
<g>
</g>
<g>
</g>
<g>
</g>
<g>
</g>
<g>
</g>
<g>
</g>
<g>
</g>
<g>
</g>
<g>
</g>
<g>
</g>
<g>
</g>
<g>
</g>
</svg>
